# xmcd CD database file generated by OrangeCD 5.1
#
# Track frame offsets:
#	150
#	11255
#	19545
#	28895
#	39405
#	48102
#	56160
#	64182
#	74682
#	84022
#	92842
#	101490
#
# Disc length: 1495 seconds
#
# Revision: 5
# Processed by: cddbd v1.5PL3 Copyright (c) Steve Scherf et al.
# Submitted via: OrangeCD 5.1
#
DISCID=9005d50c
DTITLE=Roger Miller - Best Of
DYEAR=1900
DGENRE=Country
TTITLE0=King Of The Road
TTITLE1=Dang Me
TTITLE2=Chug-A-Lug
TTITLE3=Engine Engine #9
TTITLE4=You Can't Roller Skate In A Buffalo Herd
TTITLE5=In The Summertime
TTITLE6=Do-Wacka-Do
TTITLE7=Kansas City Star
TTITLE8=One Dyin' And A Buryin'
TTITLE9=Atta Boy Girl
TTITLE10=England Swings
TTITLE11=Husbands And Wives
EXTD=
EXTT0=
EXTT1=
EXTT2=
EXTT3=
EXTT4=
EXTT5=
EXTT6=
EXTT7=
EXTT8=
EXTT9=
EXTT10=
EXTT11=
PLAYORDER=
